<mxfile host="app.diagrams.net" modified="2023-05-15T17:07:47.667Z" agent="Mozilla/5.0 (Windows NT 10.0; Win64; x64) AppleWebKit/537.36 (KHTML, like Gecko) Chrome/113.0.0.0 Safari/537.36" version="21.1.4" etag="iPkfl8Oah9Svf7I-fSwY" type="github">
  <diagram name="Page-1" id="zpEbbsgoqlpwcpbmMQB3">
    <mxGraphModel>
      <root>
        <mxCell id="0" />
        <mxCell id="1" parent="0" />
      </root>
    </mxGraphModel>
  </diagram>
</mxfile>
